<?xml version="1.0" encoding="utf-8"?>
<!-- Generator: Adobe Illustrator 25.2.3, SVG Export Plug-In . SVG Version: 6.00 Build 0)  -->
<svg version="1.1" id="Layer_1" xmlns="http://www.w3.org/2000/svg" xmlns:xlink="http://www.w3.org/1999/xlink" x="0px" y="0px"
	 viewBox="0 0 341 265" style="enable-background:new 0 0 341 265;" xml:space="preserve">
<style type="text/css">
	.st0{fill:#222222;}
</style>
<g>
	<path class="st0" d="M210.6,148.1h-0.7c-0.2,0-0.3,0.1-0.3,0.3v3.2c0,0.2,0.1,0.3,0.3,0.3h0.7c0.8,0,1.4-0.5,1.4-1.6v-0.5
		C212,148.6,211.4,148.1,210.6,148.1z"/>
	<path class="st0" d="M209.9,147h0.6c0.8,0,1.3-0.5,1.3-1.5v-0.3c0-1-0.6-1.5-1.3-1.5h-0.6c-0.2,0-0.3,0.1-0.3,0.3v2.7
		C209.6,147,209.7,147,209.9,147z"/>
	<path class="st0" d="M176.1,143.7c-0.7,0-1.2,0.6-1.2,1.7v4.8c0,1.1,0.5,1.7,1.2,1.7s1.2-0.6,1.2-1.7v-4.8
		C177.3,144.3,176.8,143.7,176.1,143.7z"/>
	<path class="st0" d="M98.3,117.6h-3.5v11.6h3.5v0c3.2,0,5.5-2.1,5.5-5.8C103.8,119.8,101.5,117.6,98.3,117.6z"/>
	<path class="st0" d="M123.3,143.7c-0.7,0-1.2,0.6-1.2,1.7v4.8c0,1.1,0.5,1.7,1.2,1.7c0.7,0,1.2-0.6,1.2-1.7v-4.8
		C124.5,144.3,124,143.7,123.3,143.7z"/>
	<path class="st0" d="M120.4,122.2c-0.1,0-0.1,0-0.2,0c-1.9,0.1-3.3,1.8-3.2,3.7c0,0.1,0,0.1,0,0.2c0,1.9,1.5,3.4,3.4,3.5v0
		c0.1,0,0.1,0,0.2,0c1.9-0.1,3.3-1.8,3.2-3.7c0-0.1,0-0.2,0-0.3C123.8,123.6,122.3,122.1,120.4,122.2z"/>
	<path class="st0" d="M181.6,122.2c-1.9,0.1-3.4,1.8-3.3,3.7c0,0.1,0,0.1,0,0.2c0,1.9,1.6,3.5,3.5,3.5c0.1,0,0.2,0,0.2,0
		c1.9-0.1,3.3-1.8,3.2-3.7c0-0.1,0-0.3,0-0.4C185.2,123.5,183.5,122.1,181.6,122.2z"/>
	<path class="st0" d="M217.5,145.3l-0.8,4.1c0,0.1,0,0.2,0.1,0.2h0h1.5c0.1,0,0.1,0,0.1-0.2l-0.8-4.1
		C217.7,145.2,217.5,145.2,217.5,145.3z"/>
	<path class="st0" d="M224.5,143.7h-0.7c-0.2,0-0.3,0.1-0.3,0.3v3.5c0,0.2,0.1,0.3,0.3,0.3h0.7c0.6,0,1.2-0.5,1.2-1.6v-0.9
		C225.7,144.2,225.1,143.7,224.5,143.7z"/>
	<path class="st0" d="M0,0v265h341V0H0z M98.5,133.8h-7.9c-0.1,0-0.2,0-0.3,0c-0.7-0.1-1.3-0.8-1.2-1.5v-12.6h0v-1.4
		c0-0.3-0.1-0.4-0.4-0.4c-0.3,0-0.7,0.3-1,0.3c-0.3,0-0.7-0.1-0.9-0.9l-0.4-2.1c-0.2-0.8-0.1-1.2,0.6-1.6c0.7-0.4,1.6-0.5,2.4-0.5h9
		v0c6.7,0,10.9,4.1,10.9,10.3C109.4,129.7,105.3,133.8,98.5,133.8z M116.3,151.9c0.6,0,1.1-0.5,1.2-1.1c0-0.2,0.1-0.2,0.2-0.2h0.8
		c0.2,0,0.2,0.1,0.2,0.2c0,1.2-1,2.2-2.2,2.2c0,0-0.1,0-0.1,0c-1.5,0-2.5-1.1-2.5-2.9v-4.8c0-1.8,0.9-2.9,2.5-2.9
		c1.2-0.1,2.3,0.9,2.4,2.1c0,0,0,0.1,0,0.1c0,0.1,0,0.2-0.2,0.2h-0.8c-0.2,0-0.2,0-0.2-0.2c0-0.6-0.5-1.1-1.2-1.1
		c-0.7,0-1.2,0.6-1.2,1.7v4.8C115.1,151.3,115.6,151.9,116.3,151.9z M125.8,150.2c0,1.8-0.9,2.9-2.4,2.9c-1.5,0-2.5-1.1-2.5-2.9
		v-4.8c0-1.8,0.9-2.9,2.5-2.9c1.5,0,2.4,1.1,2.4,2.9V150.2z M124.5,132.2c-1.3,1.3-3.1,2.1-5,2c-4.6,0-8-3.7-8-8.4s3.3-8.4,8-8.4
		c1.9,0,3.7,0.7,5.1,1.9V119c0-0.1,0-0.2,0-0.3c0.1-0.7,0.7-1.3,1.4-1.2h1.6c0.1,0,0.2,0,0.3,0c0.7,0.1,1.3,0.7,1.2,1.5v9.3
		c0,0.4,0,0.6,0.4,0.6c0.2,0,0.4-0.1,0.6-0.1c0.5-0.2,0.9,0.1,1.1,0.9l0.5,1.9c0.3,0.9,0,1.1-0.5,1.5c-0.9,0.5-1.9,0.7-2.8,0.7
		C126.9,133.9,125.4,133.3,124.5,132.2z M131.9,142.9v0.5c0,0.2-0.1,0.3-0.3,0.3h-2c-0.2,0-0.3,0.1-0.3,0.3v2.8
		c0,0.2,0.1,0.3,0.3,0.3h1.3c0.2,0,0.3,0.1,0.3,0.3v0.5c0,0.2-0.1,0.3-0.3,0.3h-1.3c-0.2,0-0.3,0.1-0.3,0.3v4.2
		c0,0.2-0.1,0.3-0.3,0.3h-0.7c-0.2,0-0.3-0.1-0.3-0.3v-9.7c0-0.2,0.1-0.3,0.3-0.3h3.2C131.8,142.6,131.9,142.7,131.9,142.9
		L131.9,142.9z M137.6,142.9v0.5c0,0.2-0.1,0.3-0.3,0.3h-2c-0.2,0-0.3,0.1-0.3,0.3v2.8c0,0.2,0.1,0.3,0.3,0.3h1.3
		c0.2,0,0.3,0.1,0.3,0.3v0.5c0,0.2-0.1,0.3-0.3,0.3h-1.3c-0.2,0-0.3,0.1-0.3,0.3v4.2c0,0.2-0.1,0.3-0.3,0.3h-0.7
		c-0.2,0-0.3-0.1-0.3-0.3v-9.7c0-0.2,0.1-0.3,0.3-0.3h3.2C137.6,142.6,137.6,142.7,137.6,142.9L137.6,142.9L137.6,142.9z
		 M134.4,129.2V113c0-0.9,0.5-1.3,1.5-1.5l2.6-0.5c1-0.2,1.5,0.5,1.5,1.5v16.3c0,0.4,0,0.6,0.4,0.6c0.2,0,0.4-0.1,0.6-0.1
		c0.5-0.2,0.9,0.1,1.1,0.9l0.5,1.9c0.3,0.9,0,1.1-0.5,1.5c-0.9,0.5-1.9,0.7-2.8,0.7C136.1,134.2,134.4,132.5,134.4,129.2z
		 M143.4,143.4c0,0.2-0.1,0.3-0.3,0.3h-2c-0.2,0-0.3,0.1-0.3,0.3l0,2.8c0,0.2,0.1,0.3,0.3,0.3h2c0.2,0,0.3,0.1,0.3,0.3v0.5
		c0,0.2-0.1,0.3-0.3,0.3h-2c-0.2,0-0.3,0.1-0.3,0.3v3.2c0,0.2,0.1,0.3,0.3,0.3h2c0.2,0,0.3,0.1,0.3,0.3v0.5c0,0.2-0.1,0.3-0.3,0.3
		h-3.2c-0.2,0-0.3-0.1-0.3-0.3v-9.7c0-0.2,0.1-0.3,0.3-0.3h3.2c0.2,0,0.3,0.1,0.3,0.3V143.4z M149.5,143.4c0,0.2-0.1,0.3-0.3,0.3h-2
		c-0.2,0-0.3,0.1-0.3,0.3l0,2.8c0,0.2,0.1,0.3,0.3,0.3h2c0.2,0,0.3,0.1,0.3,0.3v0.5c0,0.2-0.1,0.3-0.3,0.3h-2
		c-0.2,0-0.3,0.1-0.3,0.3v3.2c0,0.2,0.1,0.3,0.3,0.3h2c0.2,0,0.3,0.1,0.3,0.3v0.5c0,0.2-0.1,0.3-0.3,0.3H146c-0.2,0-0.3-0.1-0.3-0.3
		v-9.7c0-0.2,0.1-0.3,0.3-0.3h3.2c0.2,0,0.3,0.1,0.3,0.3V143.4z M147.3,134.2c-1.8,0-3.3-1.5-3.3-3.3c0-1.8,1.5-3.3,3.3-3.3
		c0,0,0,0,0,0c1.8,0,3.3,1.5,3.3,3.3C150.6,132.7,149.1,134.2,147.3,134.2z M160.9,147.9v0.4c0,0.2-0.1,0.3-0.3,0.3h-0.5
		c-0.2,0-0.3,0.1-0.3,0.3v1.9c0.2,1.1-0.6,2.2-1.8,2.3c-0.1,0-0.2,0-0.4,0c-1.1,0-2.2-0.7-2.2-2.5v-1.3c0-0.7,0.2-1.3,0.7-1.8
		c-0.5-0.5-0.8-1.1-0.7-1.8V145c0-1.8,1.1-2.5,2.2-2.5c1-0.1,1.9,0.7,2,1.7c0,0.1,0,0.2-0.2,0.2h-0.7c-0.1,0-0.2-0.1-0.2-0.2
		c-0.1-0.4-0.5-0.6-0.9-0.6c-0.5,0-1,0.3-1,1.2v0.9c0,0.9,0.5,1.2,1,1.2c0.2,0,0.3,0.1,0.3,0.3v0.6c0,0.2-0.1,0.3-0.3,0.3
		c-0.5,0-1,0.3-1,1.2v1.5c0,0.9,0.5,1.2,1,1.2c0.6,0,1-0.5,1-1c0-0.1,0-0.1,0-0.2v-2.9c0-0.2,0.1-0.3,0.3-0.3h1.5
		C160.8,147.6,160.9,147.7,160.9,147.9L160.9,147.9z M169.1,151.9c0.6,0,1.1-0.5,1.2-1.1c0-0.2,0.1-0.2,0.2-0.2h0.8
		c0.2,0,0.2,0.1,0.2,0.2c0,1.2-1,2.2-2.2,2.2c0,0-0.1,0-0.1,0c-1.5,0-2.5-1.1-2.5-2.9v-4.8c0-1.8,0.9-2.9,2.5-2.9
		c1.2-0.1,2.3,0.9,2.3,2.1c0,0,0,0.1,0,0.1c0,0.1,0,0.2-0.2,0.2h-0.8c-0.2,0-0.2,0-0.2-0.2c0-0.6-0.5-1.1-1.2-1.1
		c-0.7,0-1.2,0.6-1.2,1.7v4.8C167.9,151.3,168.4,151.9,169.1,151.9z M171.8,133.7c-0.7,0.4-1.5,0.6-2.3,0.5
		c-1.3,0.1-2.5-0.4-3.5-1.2c-1.1-1.2-2.1-2.5-3-3.8l-2.4-3.3l-1.2,1.4v5.1c0,0.1,0,0.2,0,0.3c-0.1,0.7-0.8,1.3-1.5,1.2h-2.6
		c-0.1,0-0.2,0-0.3,0c-0.7-0.1-1.3-0.8-1.2-1.5v-11h0v-2.9c0-0.3-0.1-0.4-0.4-0.4c-0.3,0-0.7,0.3-1,0.3c-0.3,0-0.7-0.1-0.9-0.9
		l-0.4-2.1c-0.2-0.8-0.1-1.2,0.6-1.6c0.7-0.4,1.6-0.5,2.4-0.5h3.8c0.1,0,0.2,0,0.3,0c0.7,0.1,1.3,0.8,1.2,1.5v6.5l5.5-6.5
		c0.7-0.9,1.2-1.5,2.2-1.5h3.6c1,0,1.5,0.6,0.8,1.5l-6.8,8l3.4,4.8c1,1.4,1.4,1.7,1.7,1.8c0.3,0,0.6,0,0.8-0.1
		c0.7-0.2,1,0.1,1.2,0.9l0.5,2.1c0,0,0,0.1,0,0.1C172.7,132.8,172.4,133.4,171.8,133.7z M178.5,150.2c0,1.8-0.9,2.9-2.5,2.9
		s-2.5-1.1-2.5-2.9v-4.8c0-1.8,0.9-2.9,2.5-2.9s2.5,1.1,2.5,2.9V150.2z M184.6,142.9v0.5c0,0.2-0.1,0.3-0.3,0.3h-2
		c-0.2,0-0.3,0.1-0.3,0.3v2.8c0,0.2,0.1,0.3,0.3,0.3h1.3c0.2,0,0.3,0.1,0.3,0.3v0.5c0,0.2-0.1,0.3-0.3,0.3h-1.3
		c-0.2,0-0.3,0.1-0.3,0.3v4.2c0,0.2-0.1,0.3-0.3,0.3h-0.7c-0.2,0-0.3-0.1-0.3-0.3v-9.7c0-0.2,0.1-0.3,0.3-0.3h3.2
		C184.5,142.6,184.6,142.7,184.6,142.9L184.6,142.9z M190.4,142.9v0.5c0,0.2-0.1,0.3-0.3,0.3h-2c-0.2,0-0.3,0.1-0.3,0.3v2.8
		c0,0.2,0.1,0.3,0.3,0.3h1.3c0.2,0,0.3,0.1,0.3,0.3v0.5c0,0.2-0.1,0.3-0.3,0.3h-1.3c-0.2,0-0.3,0.1-0.3,0.3v4.2
		c0,0.2-0.1,0.3-0.3,0.3h-0.7c-0.2,0-0.3-0.1-0.3-0.3v-9.7c0-0.2,0.1-0.3,0.3-0.3h3.2C190.3,142.6,190.4,142.7,190.4,142.9
		L190.4,142.9z M181.8,134.2c-5.2,0-8.9-3.6-8.9-8.4s3.7-8.4,8.9-8.4c5.2,0,8.9,3.6,8.9,8.4S187,134.2,181.8,134.2z M196.2,143.4
		c0,0.2-0.1,0.3-0.3,0.3h-2c-0.2,0-0.3,0.1-0.3,0.3v2.8c0,0.2,0.1,0.3,0.3,0.3h2c0.2,0,0.3,0.1,0.3,0.3v0.5c0,0.2-0.1,0.3-0.3,0.3
		h-2c-0.2,0-0.3,0.1-0.3,0.3v3.2c0,0.2,0.1,0.3,0.3,0.3h2c0.2,0,0.3,0.1,0.3,0.3v0.5c0,0.2-0.1,0.3-0.3,0.3h-3.2
		c-0.2,0-0.3-0.1-0.3-0.3v-9.7c0-0.2,0.1-0.3,0.3-0.3h3.2c0.2,0,0.3,0.1,0.3,0.3V143.4z M202.2,143.4c0,0.2-0.1,0.3-0.3,0.3h-2
		c-0.2,0-0.3,0.1-0.3,0.3v2.8c0,0.2,0.1,0.3,0.3,0.3h2c0.2,0,0.3,0.1,0.3,0.3v0.5c0,0.2-0.1,0.3-0.3,0.3h-2c-0.2,0-0.3,0.1-0.3,0.3
		v3.2c0,0.2,0.1,0.3,0.3,0.3h2c0.2,0,0.3,0.1,0.3,0.3v0.5c0,0.2-0.1,0.3-0.3,0.3h-3.2c-0.2,0-0.3-0.1-0.3-0.3v-9.7
		c0-0.2,0.1-0.3,0.3-0.3h3.2c0.2,0,0.3,0.1,0.3,0.3V143.4z M211.2,152.9c-0.2,0-0.3,0-0.5,0h-2.1c-0.2,0-0.3-0.1-0.3-0.3l0,0v-9.7
		c0-0.2,0.1-0.3,0.3-0.3h2c1.3-0.1,2.4,0.9,2.4,2.2c0,0.1,0,0.3,0,0.4v0.3c0,0.8-0.4,1.6-1,2c0.8,0.5,1.3,1.4,1.2,2.4v0.4
		C213.4,151.6,212.5,152.8,211.2,152.9z M213,122.1c-0.1,0-0.2,0-0.3,0c-1.3,0.1-2.3,1.3-2.2,2.7v7.5c0,0.1,0,0.2,0,0.3
		c-0.1,0.7-0.7,1.3-1.4,1.2h-2.6c-0.1,0-0.2,0-0.3,0c-0.7-0.1-1.2-0.7-1.2-1.5v-7.5c0-0.1,0-0.3,0-0.4c0-1.3-1.1-2.3-2.4-2.3
		c-0.1,0-0.2,0-0.3,0c-1.3,0.1-2.3,1.3-2.2,2.7v7.5c0,0.1,0,0.2,0,0.3c-0.1,0.7-0.7,1.3-1.4,1.2H196c-0.1,0-0.2,0-0.3,0
		c-0.7-0.1-1.2-0.7-1.2-1.5v-9.6c0-0.3-0.1-0.4-0.4-0.4c-0.3,0-0.7,0.3-1,0.3c-0.3,0-0.7-0.1-0.9-0.9l-0.4-2.1
		c-0.2-0.8-0.1-1.2,0.6-1.6c0.7-0.4,1.6-0.5,2.4-0.5c1.8-0.2,3.5,0.9,4,2.6c1.1-1.7,3.1-2.7,5.1-2.6c1.9-0.1,3.7,0.7,4.9,2.1
		c1.4-1.4,3.3-2.2,5.2-2.1c4,0,6.7,2.7,6.7,7v0h0v3.9c0,0.4,0,0.6,0.4,0.6c0.2,0,0.4-0.1,0.6-0.1c0.5-0.2,0.9,0.1,1.1,0.9l0.5,1.9
		c0.3,0.9,0,1.1-0.5,1.5c-0.9,0.5-1.9,0.7-2.8,0.7c-3.2,0-4.9-1.7-4.9-5v-4c0-0.1,0-0.3,0-0.4C215.4,123.1,214.3,122.1,213,122.1z
		 M220.2,152.9h-0.7c-0.2,0-0.3-0.1-0.3-0.3l-0.4-1.8c0-0.2-0.1-0.2-0.3-0.2h-1.7c-0.2,0-0.2,0-0.3,0.2l-0.4,1.8
		c0,0.2-0.1,0.3-0.3,0.3h-0.7c-0.2,0-0.2-0.1-0.2-0.3l2.1-9.8c0.1-0.2,0.2-0.3,0.4-0.3h0.5c0.2,0,0.3,0,0.4,0.3l2.1,9.8
		C220.4,152.9,220.3,152.9,220.2,152.9z M227.2,153L227.2,153h-0.8c-0.1,0-0.3-0.1-0.3-0.2l-1.5-3.9h-0.8c-0.2,0-0.3,0.1-0.3,0.3
		v3.5c0,0.2-0.1,0.3-0.3,0.3h-0.7c-0.2,0-0.3-0.1-0.3-0.3v-9.7c0-0.2,0.1-0.3,0.3-0.3h2c1.4,0,2.4,1,2.4,2.7v0.9
		c0.1,1-0.4,1.9-1.2,2.4l1.6,4C227.4,152.8,227.3,153,227.2,153z M254.2,133.1c-0.9,0.5-1.9,0.7-2.8,0.7c-3.2,0-4.9-1.7-4.9-5v-4
		c0-0.1,0-0.3,0-0.4c0-1.3-1.1-2.3-2.4-2.3c-0.1,0-0.2,0-0.3,0c-1.3,0.1-2.3,1.3-2.2,2.7v7.5c0,0.1,0,0.2,0,0.3
		c-0.1,0.7-0.7,1.3-1.4,1.2h-2.6c-0.1,0-0.2,0-0.3,0c-0.7-0.1-1.2-0.7-1.2-1.5v-7.5c0-0.1,0-0.3,0-0.4c0-1.3-1.1-2.3-2.4-2.3
		c-0.1,0-0.2,0-0.3,0c-1.3,0.1-2.3,1.3-2.2,2.7v7.5c0,0.1,0,0.2,0,0.3c-0.1,0.7-0.7,1.3-1.4,1.2h-2.6c-0.1,0-0.2,0-0.3,0
		c-0.7-0.1-1.2-0.7-1.2-1.5v-9.6c0-0.3-0.1-0.4-0.4-0.4c-0.3,0-0.7,0.3-1,0.3c-0.3,0-0.7-0.1-0.9-0.9l-0.4-2.1
		c-0.2-0.8-0.1-1.2,0.6-1.6c0.7-0.4,1.6-0.5,2.4-0.5c1.8-0.2,3.5,0.9,4.1,2.6c1.1-1.7,3.1-2.7,5.1-2.6c1.9-0.1,3.7,0.7,4.9,2.1
		c1.4-1.4,3.3-2.2,5.2-2.1c4,0,6.7,2.7,6.7,7v0h0v3.9c0,0.4,0,0.6,0.4,0.6c0.2,0,0.4-0.1,0.6-0.1c0.5-0.2,0.9,0.1,1.1,0.9l0.5,1.9
		l0,0C255,132.6,254.7,132.8,254.2,133.1z"/>
	<path class="st0" d="M209.6,144c0-0.2,0.1-0.3,0.3-0.3h0.6c0.8,0,1.3,0.5,1.3,1.5v0.3c0,1-0.6,1.5-1.3,1.5h-0.6
		c-0.2,0-0.3-0.1-0.3-0.3V144z M212,150.2c0,1.1-0.6,1.6-1.4,1.6h-0.7c-0.2,0-0.3-0.1-0.3-0.3v-3.2c0-0.2,0.1-0.3,0.3-0.3h0.7
		c0.8,0,1.4,0.5,1.4,1.6V150.2z"/>
</g>
</svg>
