<?xml version="1.0" encoding="utf-8"?>
<!-- Generator: Adobe Illustrator 25.2.3, SVG Export Plug-In . SVG Version: 6.00 Build 0)  -->
<svg version="1.1" id="Layer_1" xmlns="http://www.w3.org/2000/svg" xmlns:xlink="http://www.w3.org/1999/xlink" x="0px" y="0px"
	 viewBox="0 0 24 24" style="enable-background:new 0 0 24 24;" xml:space="preserve">
<style type="text/css">
	.st0{fill:#EB5B29;}
</style>
<path class="st0" d="M12,11.7c0.6,0,1.1-0.2,1.5-0.6c0.4-0.4,0.6-0.9,0.6-1.5s-0.2-1.1-0.6-1.5c-0.4-0.4-0.9-0.6-1.5-0.6
	s-1.1,0.2-1.5,0.6S9.9,9,9.9,9.6s0.2,1.1,0.6,1.5C10.9,11.5,11.4,11.7,12,11.7z M12,24c-3.2-2.7-5.6-5.3-7.2-7.6s-2.4-4.5-2.4-6.5
	c0-3,1-5.4,2.9-7.2S9.5,0,12,0s4.8,0.9,6.7,2.7s2.9,4.2,2.9,7.2c0,2-0.8,4.2-2.4,6.5S15.2,21.3,12,24z"/>
</svg>
